{"title":"Justice.League.Attack.of.the.Legion.of.Doom.2015.BRRip.480p-VYTO","uid":12214153,"size":285549949,"categoryP":"video","categoryS":"movies","magnet":"?xt=urn:btih:696112cd8dc258e8e1418d8155fb608aad5de98d&amp;dn=Justice.League.Attack.of.the.Legion.of.Doom.2015.BRRip.480p-VYTO&amp;tr=udp%3A%2F%2Ftracker.openbittorrent.com%3A80&amp;tr=udp%3A%2F%2Fopen.demonii.com%3A1337&amp;tr=udp%3A%2F%2Ftracker.coppersurfer.tk%3A6969&amp;tr=udp%3A%2F%2Fexodus.desync.com%3A6969","seeders":3,"leechers":2,"uploader":"ValidusVyto","files":7,"time":1439198883,"description":"____    ____ ____    ____ .___________.  ______   \n     /   /      /   / |           | /  __    \n    /   /      /   /  `---|  |----`|  |  |  | \n        /     _    _/       |  |     |  |  |  | \n       /        |  |         |  |     |  `--'  | \n    __/         |__|         |__|      ______/  \n                                                  \nPresenting Small Encodes with quality for years!\n                                                                                                   \n                                                                                                   \n\nLEGO.DC.Comics.Super.Heroes.Justice.League.Attack.of.the.Legion.of.Doom.2015.BRRip.480p-VYTO\n\n\nGeneral\nFormat                         : MPEG-4\nFile size                      : 266 MiB\nDuration                       : 1h 17mn\nOverall bit rate               : 483 Kbps\n\nVideo\nFormat                         : AVC\nBit rate                       : 448 Kbps\nWidth                          : 720 pixels\nHeight                         : 400 pixels\nDisplay aspect ratio           : 16:9\nFrame rate mode                : Constant\nFrame rate                     : 23.976 fps\nBit depth                      : 8 bits\nStream size                    : 247 MiB (93%)\nWriting library                : x264 core 148 r2579\n\nAudio\nFormat                         : AAC\nBit rate mode                  : Variable\nBit rate                       : 31.9 Kbps\nChannel(s)                     : 2 channels \nChannel positions              : Front: L R \nSampling rate                  : 48.0 KHz \nStream size                    : 17.6 MiB (7%)\nLanguage                       : English\n\nSubtitle                       : Yes\nSource                     \t   : 720p.BluRay.x264-ROVERS\t\t\t\n\nScreenshots:\n &lt;a href=&quot;\nhttp://ititli.com/k9&quot; rel=&quot;nofollow&quot; target=&quot;_NEW&quot;&gt;\nhttp://ititli.com/k9&lt;/a&gt; &lt;a href=&quot;\nhttp://ititli.com/kX&quot; rel=&quot;nofollow&quot; target=&quot;_NEW&quot;&gt;\nhttp://ititli.com/kX&lt;/a&gt; &lt;a href=&quot;\nhttp://ititli.com/kq&quot; rel=&quot;nofollow&quot; target=&quot;_NEW&quot;&gt;\nhttp://ititli.com/kq&lt;/a&gt; &lt;a href=&quot;\nhttp://ititli.com/kr&quot; rel=&quot;nofollow&quot; target=&quot;_NEW&quot;&gt;\nhttp://ititli.com/kr&lt;/a&gt; &lt;a href=&quot;\nhttp://ititli.com/k1&quot; rel=&quot;nofollow&quot; target=&quot;_NEW&quot;&gt;\nhttp://ititli.com/k1&lt;/a&gt; &lt;a href=&quot;\nhttp://ititli.com/kT&quot; rel=&quot;nofollow&quot; target=&quot;_NEW&quot;&gt;\nhttp://ititli.com/kT&lt;/a&gt; &lt;a href=&quot;\nhttp://ititli.com/kW&quot; rel=&quot;nofollow&quot; target=&quot;_NEW&quot;&gt;\nhttp://ititli.com/kW&lt;/a&gt; &lt;a href=&quot;\nhttp://ititli.com/kg&quot; rel=&quot;nofollow&quot; target=&quot;_NEW&quot;&gt;\nhttp://ititli.com/kg&lt;/a&gt; &lt;a href=&quot;\nhttp://ititli.com/kn&quot; rel=&quot;nofollow&quot; target=&quot;_NEW&quot;&gt;\nhttp://ititli.com/kn&lt;/a&gt; &lt;a href=&quot;\nhttp://ititli.com/kw&quot; rel=&quot;nofollow&quot; target=&quot;_NEW&quot;&gt;\nhttp://ititli.com/kw&lt;/a&gt; &lt;a href=&quot;\nhttp://ititli.com/k2&quot; rel=&quot;nofollow&quot; target=&quot;_NEW&quot;&gt;\nhttp://ititli.com/k2&lt;/a&gt; &lt;a href=&quot;\nhttp://ititli.com/k6&quot; rel=&quot;nofollow&quot; target=&quot;_NEW&quot;&gt;\nhttp://ititli.com/k6&lt;/a&gt;\n\n----------------------------------------------------------------------------------------------------\n\n\nEncoder Notes: Looking For Early Access To Anything You Can Provide DVDScr, R5, DVDR, BluRay, Direct\nAudio, Music Releases and Seedboxes. If You Got anything to offer please contact us.\n\nSupport us by donating BC - 1FgwdzPsd1y25Gea8wP1qni35uGCtmkRCD","torrent":{"xt":"urn:btih:696112cd8dc258e8e1418d8155fb608aad5de98d","amp;dn":"Justice.League.Attack.of.the.Legion.of.Doom.2015.BRRip.480p-VYTO","amp;tr":["udp%3A%2F%2Ftracker.openbittorrent.com%3A80","udp%3A%2F%2Fopen.demonii.com%3A1337","udp%3A%2F%2Ftracker.coppersurfer.tk%3A6969","udp%3A%2F%2Fexodus.desync.com%3A6969"],"infoHash":"696112cd8dc258e8e1418d8155fb608aad5de98d","infoHashBuffer":{"type":"Buffer","data":[105,97,18,205,141,194,88,232,225,65,141,129,85,251,96,138,173,93,233,141]},"announce":[],"urlList":[]}}